<?xml version="1.0" encoding="UTF-8"?>
<svg width="203px" height="200px" viewBox="0 0 203 200" version="1.1" xmlns="http://www.w3.org/2000/svg" xmlns:xlink="http://www.w3.org/1999/xlink">
    <!-- Generator: Sketch 47.1 (45422) - http://www.bohemiancoding.com/sketch -->
    <title>Group 7</title>
    <desc>Created with Sketch.</desc>
    <defs></defs>
    <g id="Page-1" stroke="none" stroke-width="1" fill="none" fill-rule="evenodd">
        <g id="Empty_Events" transform="translate(-86.000000, -125.000000)">
            <g id="Group-7" transform="translate(79.000000, 126.000000)">
                <g id="Group-5" transform="translate(7.000000, 0.000000)">
                    <circle id="circle" fill="#FFFFFF" cx="103" cy="99" r="57"></circle>
                    <circle id="circle" stroke-opacity="0.6" stroke="#B4B4B4" stroke-width="2" opacity="0.400000006" stroke-linecap="round" stroke-dasharray="2,9" cx="103" cy="99" r="99"></circle>
                    <path d="M145.550772,19.7183639 C146.01472,20.0938787 146.684309,20.0938787 147.147421,19.7183639 L154.447699,13.8189373 L161.744633,19.7183639 C162.207745,20.0938787 162.87817,20.0930606 163.342117,19.7191821 L170.644903,13.8189373 L177.947689,19.7191821 C178.181753,19.9081666 178.464301,19.9997955 178.745177,19.9997955 C179.106304,19.9997955 179.464923,19.8484442 179.713198,19.5539228 C180.153739,19.0319655 180.078504,18.2580288 179.544338,17.8260642 L171.443227,11.2811449 C170.97928,10.9072663 170.310527,10.9072663 169.846579,11.2811449 L162.543793,17.1813896 L155.246023,11.281963 C154.782911,10.9064482 154.113322,10.9064482 153.649375,11.281963 L146.349097,17.1813896 L139.052998,11.281963 C138.517996,10.8491802 137.728031,10.9228105 137.28749,11.4464041 C136.846112,11.9691795 136.921347,12.7422981 137.455514,13.1734447 L145.550772,19.7183639" id="Fill-45" fill="#ED6564"></path>
                    <g id="Group-6" transform="translate(37.000000, 183.000000) scale(-1, 1) translate(-37.000000, -183.000000) translate(0.000000, 171.000000)" fill="#ED6564">
                        <path d="M22.9302595,15.1578947 L34.7646557,15.1578947 C35.6534684,15.1578947 36.3728814,14.592 36.3728814,13.8947368 C36.3728814,13.1966316 35.6534684,12.6315789 34.7646557,12.6315789 L22.9302595,12.6315789 C22.042519,12.6315789 21.3220339,13.1966316 21.3220339,13.8947368 C21.3220339,14.592 22.042519,15.1578947 22.9302595,15.1578947" id="Fill-52"></path>
                        <path d="M72.3917744,10.1052632 C73.2805871,10.1052632 74,9.53936842 74,8.84210526 C74,8.144 73.2805871,7.57894737 72.3917744,7.57894737 L10.3878866,7.57894737 C9.50014609,7.57894737 8.77966102,8.144 8.77966102,8.84210526 C8.77966102,9.53936842 9.50014609,10.1052632 10.3878866,10.1052632 L72.3917744,10.1052632 Z" id="Fill-52-Copy"></path>
                        <path d="M20.1706326,21.4736842 C19.4206234,21.4736842 18.8135593,22.0395789 18.8135593,22.7368421 C18.8135593,23.4349474 19.4206234,24 20.1706326,24 L21.2191979,24 C21.9683024,24 22.5762712,23.4349474 22.5762712,22.7368421 C22.5762712,22.0395789 21.9683024,21.4736842 21.2191979,21.4736842 L20.1706326,21.4736842" id="Fill-53"></path>
                        <path d="M1.35707329,2.52631579 L2.40563858,2.52631579 C3.15564775,2.52631579 3.76271186,1.96042105 3.76271186,1.26315789 C3.76271186,0.565052632 3.15564775,0 2.40563858,0 L1.35707329,0 C0.607968832,0 0,0.565052632 0,1.26315789 C0,1.96042105 0.607968832,2.52631579 1.35707329,2.52631579" id="Fill-54"></path>
                    </g>
                    <path d="M36.6370247,68.6360194 L36.6370247,68.8639806 C36.6370247,69.4910633 37.2469323,72 38.0004545,72 C38.7530677,72 39.3638843,69.4910633 39.3638843,68.8639806 L39.3638843,68.6360194 L39.6365702,68.6360194 C40.3900924,68.6360194 41,68.1270827 41,67.5 C41,66.8729173 40.3900924,66.3639806 39.6365702,66.3639806 L39.3638843,66.3639806 L39.3638843,66.1360194 C39.3638843,65.5089367 38.7530677,63 38.0004545,63 C37.2469323,63 36.6370247,65.5089367 36.6370247,66.1360194 L36.6370247,66.3639806 L36.3634298,66.3639806 C35.6099076,66.3639806 35,66.8729173 35,67.5 C35,68.1270827 35.6099076,68.6360194 36.3634298,68.6360194 L36.6370247,68.6360194 Z" id="Fill-62" fill="#ED6564"></path>
                    <path d="M123.499538,37 C124.327379,37 125,36.3271719 125,35.5 C125,34.6728281 124.327379,34 123.499538,34 C122.672621,34 122,34.6728281 122,35.5 C122,36.3271719 122.672621,37 123.499538,37" id="Fill-42" fill="#ED6564"></path>
                    <path d="M53.499538,117 C54.3273791,117 55,116.327172 55,115.5 C55,114.672828 54.3273791,114 53.499538,114 C52.6726209,114 52,114.672828 52,115.5 C52,116.327172 52.6726209,117 53.499538,117" id="Fill-42-Copy" fill="#ED6564"></path>
                    <path d="M146.790444,154.146679 C146.790444,153.513712 146.212518,153 145.50043,153 C144.787482,153 144.210416,153.513712 144.210416,154.146679 L144.210416,155.852938 L142.290014,155.852938 C141.577066,155.852938 141,156.366651 141,156.999618 C141,157.633349 141.577066,158.146297 142.290014,158.146297 L144.210416,158.146297 L144.210416,159.853321 C144.210416,160.486288 144.787482,161 145.50043,161 C146.212518,161 146.790444,160.486288 146.790444,159.853321 L146.790444,158.146297 L148.709986,158.146297 C149.422934,158.146297 150,157.633349 150,156.999618 C150,156.366651 149.422934,155.852938 148.709986,155.852938 L146.790444,155.852938 L146.790444,154.146679" id="Fill-57" fill="#ED6564"></path>
                    <polygon id="Shape" stroke-opacity="0.9" stroke="#585858" fill="#FFFFFF" fill-rule="nonzero" points="94.5 95.243 78.756 79.499 76.5 80 76.5 123 78.599 122.534 94.5 106.632"></polygon>
                    <polygon id="Shape" stroke-opacity="0.9" stroke="#585858" fill="#FFFFFF" fill-rule="nonzero" points="85.872 120.917 94.5 119 94.5 112.289"></polygon>
                    <polygon id="Shape" stroke-opacity="0.9" stroke="#585858" fill="#FFFFFF" fill-rule="nonzero" points="94.5 76 83.384 78.47 94.5 89.586"></polygon>
                    <polygon id="Shape" stroke-opacity="0.9" stroke="#585858" fill="#FFFFFF" fill-rule="nonzero" points="125.949 75.184 111.5 80 111.5 89.632"></polygon>
                    <polygon id="Shape" stroke-opacity="0.9" stroke="#585858" fill="#FFFFFF" fill-rule="nonzero" points="111.5 95.289 111.5 122 129.5 115 129.5 77.289"></polygon>
                    <polygon id="Shape" stroke-opacity="0.9" stroke="#585858" fill="#DDDDDD" fill-rule="nonzero" points="103.023 98.109 111.5 89.632 111.5 80 94.5 76 94.5 89.586"></polygon>
                    <polygon id="Shape" fill="#DDDDDD" fill-rule="nonzero" points="95 95.243 95 106.632 100.195 100.938"></polygon>
                    <polygon id="Shape" stroke-opacity="0.9" stroke="#585858" fill="#DDDDDD" fill-rule="nonzero" points="94.5 112.289 94.5 119 111.5 122 111.5 95.289"></polygon>
                    <polygon id="Shape" stroke-opacity="0.9" stroke="#585858" fill="#9F71E7" fill-rule="nonzero" points="94.5 89.586 83.384 78.47 78.756 79.499 94.5 95.243"></polygon>
                    <polygon id="Shape" stroke-opacity="0.9" stroke="#585858" fill="#9F71E7" fill-rule="nonzero" points="94.5 106.632 78.599 122.534 85.872 120.917 94.5 112.289"></polygon>
                    <polygon id="Shape" stroke-opacity="0.9" stroke="#585858" fill="#9F71E7" fill-rule="nonzero" points="111.5 95.289 129.5 77.289 129.5 74 125.949 75.184 111.5 89.632"></polygon>
                    <polygon id="Shape" stroke-opacity="0.9" stroke="#585858" fill="#9F71E7" fill-rule="nonzero" points="103.023 98.109 94.5 89.586 94.5 95.243 100.195 100.938 94.5 106.632 94.5 112.289 111.5 95.289 111.5 89.632"></polygon>
                    <circle id="Oval" fill="#FFFFFF" fill-rule="nonzero" cx="114.277" cy="109.814" r="9.796"></circle>
                    <path d="M117.83,100.693 L105.156,113.367 C105.862,115.177 107.086,116.724 108.651,117.826 L122.289,104.188 C121.187,102.623 119.64,101.399 117.83,100.693 Z" id="Shape" fill="#E6E6E6" fill-rule="nonzero"></path>
                    <path d="M128.223,123.309 L122.253,117.065 C123.999,115.146 125.073,112.607 125.073,109.814 C125.073,103.861 120.23,99.018 114.277,99.018 C108.324,99.018 103.481,103.861 103.481,109.814 C103.481,115.767 108.324,120.61 114.277,120.61 C116.719,120.61 118.966,119.786 120.776,118.414 L126.777,124.69 C126.974,124.896 127.236,125 127.5,125 C127.749,125 127.997,124.908 128.191,124.723 C128.59,124.341 128.605,123.708 128.223,123.309 Z M105.482,109.814 C105.482,104.964 109.428,101.018 114.278,101.018 C119.128,101.018 123.074,104.964 123.074,109.814 C123.074,114.664 119.128,118.61 114.278,118.61 C109.428,118.61 105.482,114.665 105.482,109.814 Z" id="Shape" fill-opacity="0.9" fill="#585858" fill-rule="nonzero"></path>
                </g>
                <g id="Artwork" transform="translate(14.000000, 49.000000)">
                    <g id="lines" transform="translate(62.819563, 11.781228) rotate(-29.000000) translate(-62.819563, -11.781228) translate(55.819563, 6.781228)"></g>
                    <g id="lines" transform="translate(126.000000, 9.000000) scale(-1, 1) rotate(-41.000000) translate(-126.000000, -9.000000) translate(119.000000, 4.000000)"></g>
                </g>
                <g id="Group-4" transform="translate(31.000000, 169.500000) scale(-1, 1) translate(-31.000000, -169.500000) translate(0.000000, 160.000000)">
                    <g id="Group-2" transform="translate(2.000000, 0.000000)"></g>
                </g>
                <g id="flaticon1512489858-svg" transform="translate(83.000000, 64.000000)">
                    <g id="Group"></g>
                    <g id="Group" transform="translate(27.000000, 25.000000)"></g>
                </g>
                <g id="lines" transform="translate(79.000000, 76.000000) rotate(-29.000000) translate(-79.000000, -76.000000) translate(72.000000, 71.000000)" fill-rule="nonzero" fill="#FFCECE">
                    <path d="M8.060853,5.63184602 L6.11148591,1.74295713 C5.90712349,1.33526443 5.42517883,1.17788336 5.0350324,1.39143668 C4.64488596,1.60499001 4.49427825,2.10860942 4.69864067,2.51630213 L6.64800776,6.40519101 C6.85237018,6.81288372 7.33431484,6.97026479 7.72446127,6.75671146 C8.11460771,6.54315814 8.26521542,6.03953873 8.060853,5.63184602 Z" id="Line"></path>
                    <path d="M4.5161446,8.22476495 L2.56677751,4.33587606 C2.36241509,3.92818335 1.88047044,3.77080229 1.490324,3.98435561 C1.10017756,4.19790893 0.949569856,4.70152834 1.15393228,5.10922105 L3.10329937,8.99810994 C3.30766179,9.40580264 3.78960644,9.56318371 4.17975288,9.34963039 C4.56989931,9.13607707 4.72050702,8.63245765 4.5161446,8.22476495 Z" id="Line-Copy" transform="translate(2.835038, 6.666993) rotate(-24.000000) translate(-2.835038, -6.666993) "></path>
                    <path d="M12.6677961,4.89074597 L10.718429,1.00185708 C10.5140665,0.594164372 10.0321219,0.436783305 9.64197546,0.650336628 C9.25182902,0.86388995 9.10122131,1.36750936 9.30558373,1.77520207 L11.2549508,5.66409096 C11.4593132,6.07178366 11.9412579,6.22916473 12.3314043,6.01561141 C12.7215508,5.80205809 12.8721585,5.29843867 12.6677961,4.89074597 Z" id="Line-Copy-2" transform="translate(10.986690, 3.332974) rotate(30.000000) translate(-10.986690, -3.332974) "></path>
                </g>
                <g id="lines" transform="translate(142.000000, 70.500000) scale(-1, 1) rotate(-41.000000) translate(-142.000000, -70.500000) translate(135.000000, 66.000000)" fill-rule="nonzero" fill="#FFCECE">
                    <path d="M7.95086879,5.66497453 L5.96540231,1.75320982 C5.7572554,1.34311892 5.26638585,1.18481209 4.86901448,1.39962161 C4.47164311,1.61443112 4.31824637,2.121013 4.52639328,2.5311039 L6.51185976,6.44286861 C6.72000667,6.85295951 7.21087622,7.01126634 7.60824759,6.79645683 C8.00561897,6.58164731 8.1590157,6.07506543 7.95086879,5.66497453 Z" id="Line"></path>
                    <path d="M4.81670314,7.42661653 L1.44456903,4.67756921 C1.09105045,4.38937209 0.579554486,4.44860066 0.302110821,4.80985991 C0.0246671565,5.17111917 0.0863380611,5.69760757 0.439856642,5.98580468 L3.81199075,8.734852 C4.16550933,9.02304911 4.67700529,8.96382055 4.95444896,8.60256129 C5.23189262,8.24130204 5.17022172,7.71481364 4.81670314,7.42661653 Z" id="Line-Copy"></path>
                    <path d="M12.6431256,4.91951506 L10.6576591,1.00775035 C10.4495122,0.597659456 9.95864267,0.439352619 9.5612713,0.654162137 C9.16389992,0.868971656 9.01050319,1.37555354 9.2186501,1.78564443 L11.2041166,5.69740914 C11.4122635,6.10750004 11.903133,6.26580688 12.3005044,6.05099736 C12.6978758,5.83618784 12.8512725,5.32960596 12.6431256,4.91951506 Z" id="Line-Copy-2" transform="translate(10.930888, 3.352580) rotate(30.000000) translate(-10.930888, -3.352580) "></path>
                </g>
            </g>
        </g>
    </g>
</svg>