<?xml version="1.0" encoding="UTF-8"?>
<svg width="16px" height="16px" viewBox="0 0 16 16" version="1.1" xmlns="http://www.w3.org/2000/svg" xmlns:xlink="http://www.w3.org/1999/xlink">
    <!-- Generator: Sketch 47.1 (45422) - http://www.bohemiancoding.com/sketch -->
    <title>favicon_16</title>
    <desc>Created with Sketch.</desc>
    <defs></defs>
    <g id="branding" stroke="none" stroke-width="1" fill="none" fill-rule="evenodd">
        <g id="favicon_16">
            <rect id="Rectangle-4" fill="#ED6564" x="0" y="0" width="16" height="16" rx="2"></rect>
            <g id="Group-4" transform="translate(2.500000, 1.000000)">
                <g id="Group-2">
                    <path d="M1.84170786,2.65188724 C0.83307639,3.62749092 0.25,4.96779929 0.25,6.40249564 C0.25,8.29641438 1.99372918,10.8353219 5.50003795,13.9815058 C9.0063032,10.835286 10.75,8.29639657 10.75,6.40249564 C10.75,4.96779929 10.1669236,3.62749092 9.15829214,2.65188724 C8.30903587,3.70729666 7.19998267,4.84863576 5.83091203,6.07690304 C5.64268372,6.24577283 5.3574959,6.24579596 5.16913052,6.07694121 C3.80004031,4.8486594 2.69097292,3.70730758 1.84170786,2.65188724 Z" id="Combined-Shape" stroke="#FFFFFF" stroke-width="0.5"></path>
                    <g id="Group" transform="translate(1.617647, 0.000000)">
                        <rect id="Rectangle" fill="#ED6564" x="0.226470835" y="0" width="7.31176545" height="9.14285714" rx="0.982097187"></rect>
                        <g id="Group-5" transform="translate(0.161765, 0.000000)">
                            <rect id="Rectangle-Copy" fill="#ED6564" x="2.91176471" y="1.30612245" width="3.88235294" height="6.85714286"></rect>
                            <rect id="Rectangle" fill="#ED6564" x="0.647058824" y="2.93877551" width="2.58823529" height="5.2244898"></rect>
                            <path d="M7.30338045,8.05074801 L7.07371511,8.05074801 L7.07371511,0.702098414 C7.07371511,0.62452684 7.01201111,0.561681986 6.93591909,0.561681986 L4.3636576,0.561681986 C4.28754961,0.561681986 4.22586158,0.62452684 4.22586158,0.702098414 L4.22586158,1.31058045 L3.95026955,1.31058045 L3.95026955,0.702098414 C3.95026955,0.62452684 3.88856555,0.561681986 3.81247354,0.561681986 L3.21533086,0.561681986 L3.21533086,0.140416428 C3.21533086,0.0628448541 3.15362686,0 3.07753484,0 C3.00144282,0 2.93973882,0.0628448541 2.93973882,0.140416428 L2.93973882,0.561681986 L2.34261211,0.561681986 C2.26650412,0.561681986 2.20481609,0.62452684 2.20481609,0.702098414 L2.20481609,1.31058045 L1.79141208,1.31058045 C1.71530409,1.31058045 1.65361606,1.37342531 1.65361606,1.45099688 L1.65361606,2.6211609 L0.505289318,2.6211609 C0.429181332,2.6211609 0.367493303,2.68400576 0.367493303,2.76157733 L0.367493303,8.05073174 L0.137796016,8.05073174 C0.0616880297,8.05073174 0,8.11357659 0,8.19114817 C0,8.26871974 0.0617039986,8.33158087 0.137796016,8.33158087 L7.30338045,8.33158087 C7.37948844,8.33158087 7.44117647,8.26873601 7.44117647,8.19116444 C7.44117647,8.11359286 7.37947247,8.05074801 7.30338045,8.05074801 Z M2.48039216,0.842514843 L3.67464558,0.842514843 L3.67464558,1.31058045 L2.48039216,1.31058045 L2.48039216,0.842514843 Z M2.02106146,8.05074801 L1.92919213,8.05074801 L1.92919213,7.81671521 C1.92919213,7.73914363 1.86748813,7.67629878 1.79139611,7.67629878 C1.71530409,7.67629878 1.65360009,7.73914363 1.65360009,7.81671521 L1.65360009,8.05074801 L1.56173076,8.05074801 L1.56173076,7.5826824 L2.02106146,7.5826824 L2.02106146,8.05074801 Z M2.93972285,4.44662329 L2.93972285,4.68819032 L2.93972285,8.05074801 L2.29665349,8.05074801 L2.29665349,7.44226597 C2.29665349,7.3646944 2.23494949,7.30184954 2.15885747,7.30184954 L1.42393475,7.30184954 C1.34782676,7.30184954 1.28613873,7.3646944 1.28613873,7.44226597 L1.28613873,8.05074801 L0.643069365,8.05074801 L0.643069365,2.90201003 L2.93972285,2.90201003 L2.93972285,4.44662329 Z M3.07751887,2.62117718 L1.92919213,2.62117718 L1.92919213,1.59142958 L4.22584562,1.59142958 L4.22584562,4.30620686 L3.21533086,4.30620686 L3.21533086,3.83814125 L3.21533086,3.5573084 L3.21533086,3.08924279 L3.21533086,2.80840993 L3.21533086,2.76160988 C3.21533086,2.68402203 3.15362686,2.62117718 3.07751887,2.62117718 Z M5.51198435,8.05074801 L3.21533086,8.05074801 L3.21533086,4.68819032 L3.21533086,4.58705599 L5.51198435,4.58705599 L5.51198435,8.05074801 Z M5.78757638,8.05074801 L5.78757638,4.63430406 L5.78738599,4.63430406 C5.78738599,4.45357928 5.64093534,4.30704346 5.46021059,4.30693838 L4.50146958,4.30619059 L4.50146958,1.45101315 L4.50146958,0.842514843 L6.79812307,0.842514843 L6.79812307,8.05074801 L5.78757638,8.05074801 Z" id="Shape" fill="#FFFFFF" fill-rule="nonzero"></path>
                        </g>
                    </g>
                </g>
            </g>
        </g>
    </g>
</svg>