<?xml version="1.0" encoding="UTF-8"?>
<svg width="1024px" height="345px" viewBox="0 0 1024 345" version="1.1" xmlns="http://www.w3.org/2000/svg" xmlns:xlink="http://www.w3.org/1999/xlink">
    <!-- Generator: Sketch 47.1 (45422) - http://www.bohemiancoding.com/sketch -->
    <title>Group 2</title>
    <desc>Created with Sketch.</desc>
    <defs></defs>
    <g id="Page-1" stroke="none" stroke-width="1" fill="none" fill-rule="evenodd">
        <g id="Desktop_Home" transform="translate(0.000000, -60.000000)">
            <g id="Group-2" transform="translate(0.000000, 60.000000)">
                <polygon id="Fill-1" fill="#ED6564" points="0.06 345 1025 345 1025 0 0.06 0"></polygon>
                <g id="Group-16" opacity="0.5" transform="translate(233.000000, 20.000000)" fill="#FFFFFF">
                    <path d="M205.839328,302.588015 L210.272295,302.588015 L210.272295,265.182954 L205.839328,265.182954 L205.839328,302.588015 Z M197.765982,302.588015 L203.325833,302.588015 L203.325833,246.084857 L197.765982,246.084857 L197.765982,302.588015 Z M191.006356,302.588015 L195.252487,302.588015 L195.252487,295.991236 L191.006356,295.991236 L191.006356,302.588015 Z M180.492406,302.588015 L188.49286,302.588015 L188.49286,152.575419 L180.492406,152.575419 L180.492406,302.588015 Z M173.733617,302.588015 L177.978911,302.588015 L177.978911,295.991236 L173.733617,295.991236 L173.733617,302.588015 Z M165.659433,302.588015 L171.220122,302.588015 L171.220122,246.084857 L165.659433,246.084857 L165.659433,302.588015 Z M158.712971,302.588015 L163.145938,302.588015 L163.145938,265.182954 L158.712971,265.182954 L158.712971,302.588015 Z M173.733617,293.579252 L177.978911,293.579252 L177.978911,287.996311 L173.733617,287.996311 L173.733617,293.579252 Z M173.733617,285.584326 L177.978911,285.584326 L177.978911,279.998169 L173.733617,279.998169 L173.733617,285.584326 Z M173.733617,277.586184 L177.978911,277.586184 L177.978911,272.002439 L173.733617,272.002439 L173.733617,277.586184 Z M173.733617,269.590454 L177.978911,269.590454 L177.978911,264.005905 L173.733617,264.005905 L173.733617,269.590454 Z M173.733617,261.59392 L177.978911,261.59392 L177.978911,256.009371 L173.733617,256.009371 L173.733617,261.59392 Z M173.733617,253.597386 L177.978911,253.597386 L177.978911,248.013641 L173.733617,248.013641 L173.733617,253.597386 Z M173.733617,244.878865 L173.733617,240.016303 L177.978911,240.016303 L177.978911,245.601656 L173.733617,245.601656 L173.733617,244.878865 Z M173.733617,237.604318 L177.978911,237.604318 L177.978911,232.020573 L173.733617,232.020573 L173.733617,237.604318 Z M173.733617,229.608588 L177.978911,229.608588 L177.978911,224.024039 L173.733617,224.024039 L173.733617,229.608588 Z M173.733617,221.612055 L177.978911,221.612055 L177.978911,216.02831 L173.733617,216.02831 L173.733617,221.612055 Z M173.733617,213.616325 L177.978911,213.616325 L177.978911,208.030972 L173.733617,208.030972 L173.733617,213.616325 Z M173.733617,205.618987 L177.978911,205.618987 L177.978911,200.035242 L173.733617,200.035242 L173.733617,205.618987 Z M173.733617,197.623257 L177.978911,197.623257 L177.978911,192.038708 L173.733617,192.038708 L173.733617,197.623257 Z M173.733617,189.626723 L177.978911,189.626723 L177.978911,184.042174 L173.733617,184.042174 L173.733617,189.626723 Z M173.733617,181.630189 L177.978911,181.630189 L177.978911,176.04564 L173.733617,176.04564 L173.733617,181.630189 Z M173.733617,173.633655 L177.978911,173.633655 L177.978911,168.049106 L173.733617,168.049106 L173.733617,173.633655 Z M173.733617,165.637121 L177.978911,165.637121 L177.978911,160.053376 L173.733617,160.053376 L173.733617,165.637121 Z M173.733617,157.641391 L177.978911,157.641391 L177.978911,152.575419 L173.733617,152.575419 L173.733617,157.641391 Z M188.49286,150.163434 L180.492406,150.163434 L180.492406,136.83561 C180.492406,134.718691 182.287041,132.997338 184.493052,132.997338 C186.699063,132.997338 188.49286,134.718691 188.49286,136.83561 L188.49286,150.163434 Z M177.487941,133.232908 C177.487941,129.525688 180.630648,126.510707 184.493052,126.510707 C188.355456,126.510707 191.497325,129.525688 191.497325,133.232908 L191.497325,150.163434 L191.006356,150.163434 L191.006356,136.83561 C191.006356,133.388883 188.083999,130.585353 184.493052,130.585353 C180.901268,130.585353 177.978911,133.388883 177.978911,136.83561 L177.978911,150.163434 L177.487941,150.163434 L177.487941,133.232908 Z M180.125435,123.238447 L180.138841,123.221563 C181.119942,121.931151 182.704281,121.087761 184.493052,121.087761 C186.281823,121.087761 187.865325,121.931151 188.847263,123.221563 L188.860669,123.238447 C189.392692,123.944355 189.747095,124.781313 189.851823,125.690632 C188.324456,124.68805 186.479551,124.098722 184.493052,124.098722 C182.506553,124.098722 180.661648,124.68805 179.133443,125.690632 C179.239009,124.781313 179.592574,123.944355 180.125435,123.238447 Z M184.493052,115.986412 C186.720846,115.986412 188.529725,117.686058 188.618535,119.802173 C187.416247,119.093049 186.006176,118.675776 184.493052,118.675776 C182.979928,118.675776 181.569857,119.093049 180.367569,119.802173 C180.456379,117.686058 182.265258,115.986412 184.493052,115.986412 Z M181.476858,113.917733 C181.476858,112.322607 182.829956,111.023352 184.493052,111.023352 C186.156148,111.023352 187.508408,112.322607 187.508408,113.917733 L187.508408,114.274707 C186.601874,113.830902 185.578882,113.574428 184.493052,113.574428 C183.406384,113.574428 182.383392,113.830902 181.476858,114.274707 L181.476858,113.917733 Z M182.765443,108.470668 C182.765443,107.556525 183.540437,106.81283 184.493052,106.81283 C185.445667,106.81283 186.219823,107.556525 186.219823,108.470668 L186.219823,108.879901 C185.67607,108.70865 185.096291,108.611367 184.493052,108.611367 C183.889813,108.611367 183.310034,108.70865 182.765443,108.879901 L182.765443,108.470668 Z M191.006356,157.641391 L195.252487,157.641391 L195.252487,152.575419 L191.006356,152.575419 L191.006356,157.641391 Z M191.006356,293.579252 L195.252487,293.579252 L195.252487,287.996311 L191.006356,287.996311 L191.006356,293.579252 Z M191.006356,285.584326 L195.252487,285.584326 L195.252487,279.998169 L191.006356,279.998169 L191.006356,285.584326 Z M191.006356,277.586184 L195.252487,277.586184 L195.252487,272.002439 L191.006356,272.002439 L191.006356,277.586184 Z M191.006356,269.590454 L195.252487,269.590454 L195.252487,264.005905 L191.006356,264.005905 L191.006356,269.590454 Z M191.006356,261.59392 L195.252487,261.59392 L195.252487,256.009371 L191.006356,256.009371 L191.006356,261.59392 Z M191.006356,253.597386 L195.252487,253.597386 L195.252487,248.013641 L191.006356,248.013641 L191.006356,253.597386 Z M191.006356,245.601656 L195.252487,245.601656 L195.252487,240.016303 L191.006356,240.016303 L191.006356,245.601656 Z M191.006356,237.604318 L195.252487,237.604318 L195.252487,232.020573 L191.006356,232.020573 L191.006356,237.604318 Z M191.006356,229.608588 L195.252487,229.608588 L195.252487,224.024039 L191.006356,224.024039 L191.006356,229.608588 Z M191.006356,221.612055 L195.252487,221.612055 L195.252487,216.02831 L191.006356,216.02831 L191.006356,221.612055 Z M191.006356,213.616325 L195.252487,213.616325 L195.252487,208.030972 L191.006356,208.030972 L191.006356,213.616325 Z M191.006356,205.618987 L195.252487,205.618987 L195.252487,200.035242 L191.006356,200.035242 L191.006356,205.618987 Z M191.006356,197.623257 L195.252487,197.623257 L195.252487,192.038708 L191.006356,192.038708 L191.006356,197.623257 Z M191.006356,189.626723 L195.252487,189.626723 L195.252487,184.042174 L191.006356,184.042174 L191.006356,189.626723 Z M191.006356,181.630189 L195.252487,181.630189 L195.252487,176.04564 L191.006356,176.04564 L191.006356,181.630189 Z M191.006356,165.637121 L195.252487,165.637121 L195.252487,160.053376 L191.006356,160.053376 L191.006356,165.637121 Z M191.006356,173.633655 L195.252487,173.633655 L195.252487,168.049106 L191.006356,168.049106 L191.006356,173.633655 Z M272.531568,159.353097 L271.483441,159.353097 L271.483441,139.05142 C271.483441,138.385712 270.921256,137.845428 270.226693,137.845428 L264.153251,137.845428 L264.153251,126.187501 L287.821159,126.187501 L287.821159,137.845428 L281.747717,137.845428 C281.053992,137.845428 280.490969,138.385712 280.490969,139.05142 L280.490969,159.353097 L279.442842,159.353097 C278.748279,159.353097 278.186094,159.893381 278.186094,160.559089 L278.186094,302.588015 L273.788316,302.588015 L273.788316,160.559089 C273.788316,159.893381 273.226131,159.353097 272.531568,159.353097 Z M253.959353,302.4642 L266.247831,302.4642 L266.247831,269.231872 L253.959353,269.231872 L253.959353,302.4642 Z M258.986343,259.536497 L271.274821,259.536497 L271.274821,302.4642 L268.761326,302.4642 L268.761326,268.02588 C268.761326,267.360172 268.199141,266.819887 267.504578,266.819887 L258.986343,266.819887 L258.986343,259.536497 Z M258.986343,257.124512 L271.274821,257.124512 L271.274821,256.096202 L258.986343,256.096202 L258.986343,257.124512 Z M258.986343,253.684218 L271.274821,253.684218 L271.274821,245.263978 L258.986343,245.263978 L258.986343,253.684218 Z M258.986343,242.851993 L271.274821,242.851993 L271.274821,241.823684 L258.986343,241.823684 L258.986343,242.851993 Z M258.986343,239.411699 L271.274821,239.411699 L271.274821,230.99146 L258.986343,230.99146 L258.986343,239.411699 Z M258.986343,228.579475 L271.274821,228.579475 L271.274821,227.551165 L258.986343,227.551165 L258.986343,228.579475 Z M258.986343,225.13918 L271.274821,225.13918 L271.274821,216.718941 L258.986343,216.718941 L258.986343,225.13918 Z M258.986343,214.306956 L271.274821,214.306956 L271.274821,213.278647 L258.986343,213.278647 L258.986343,214.306956 Z M258.986343,210.866662 L271.274821,210.866662 L271.274821,202.446423 L258.986343,202.446423 L258.986343,210.866662 Z M258.986343,200.034438 L271.274821,200.034438 L271.274821,199.006128 L258.986343,199.006128 L258.986343,200.034438 Z M258.986343,196.594143 L271.274821,196.594143 L271.274821,188.173904 L258.986343,188.173904 L258.986343,196.594143 Z M258.986343,185.761919 L271.274821,185.761919 L271.274821,184.73361 L258.986343,184.73361 L258.986343,185.761919 Z M258.986343,182.321625 L271.274821,182.321625 L271.274821,173.90219 L258.986343,173.90219 L258.986343,182.321625 Z M258.986343,171.490205 L271.274821,171.490205 L271.274821,170.461091 L258.986343,170.461091 L258.986343,171.490205 Z M258.986343,168.049106 L271.274821,168.049106 L271.274821,161.765082 L258.986343,161.765082 L258.986343,168.049106 Z M261.291218,159.353097 L268.969946,159.353097 L268.969946,140.257412 L261.291218,140.257412 L261.291218,159.353097 Z M283.004464,159.353097 L290.683192,159.353097 L290.683192,140.257412 L283.004464,140.257412 L283.004464,159.353097 Z M280.699589,168.049106 L292.988067,168.049106 L292.988067,161.765082 L280.699589,161.765082 L280.699589,168.049106 Z M285.72658,302.4642 L298.015057,302.4642 L298.015057,269.231872 L285.72658,269.231872 L285.72658,302.4642 Z M292.988067,259.536497 L292.988067,266.819887 L284.469832,266.819887 C283.776107,266.819887 283.213085,267.360172 283.213085,268.02588 L283.213085,302.4642 L280.699589,302.4642 L280.699589,259.536497 L292.988067,259.536497 Z M280.699589,257.124512 L292.988067,257.124512 L292.988067,256.096202 L280.699589,256.096202 L280.699589,257.124512 Z M280.699589,253.684218 L292.988067,253.684218 L292.988067,245.263978 L280.699589,245.263978 L280.699589,253.684218 Z M280.699589,242.851993 L292.988067,242.851993 L292.988067,241.823684 L280.699589,241.823684 L280.699589,242.851993 Z M280.699589,239.411699 L292.988067,239.411699 L292.988067,230.99146 L280.699589,230.99146 L280.699589,239.411699 Z M280.699589,228.579475 L292.988067,228.579475 L292.988067,227.551165 L280.699589,227.551165 L280.699589,228.579475 Z M280.699589,225.13918 L292.988067,225.13918 L292.988067,216.718941 L280.699589,216.718941 L280.699589,225.13918 Z M280.699589,214.306956 L292.988067,214.306956 L292.988067,213.278647 L280.699589,213.278647 L280.699589,214.306956 Z M280.699589,210.866662 L292.988067,210.866662 L292.988067,202.446423 L280.699589,202.446423 L280.699589,210.866662 Z M280.699589,200.034438 L292.988067,200.034438 L292.988067,199.006128 L280.699589,199.006128 L280.699589,200.034438 Z M280.699589,196.594143 L292.988067,196.594143 L292.988067,188.173904 L280.699589,188.173904 L280.699589,196.594143 Z M280.699589,185.761919 L292.988067,185.761919 L292.988067,184.73361 L280.699589,184.73361 L280.699589,185.761919 Z M280.699589,171.490205 L292.988067,171.490205 L292.988067,170.461091 L280.699589,170.461091 L280.699589,171.490205 Z M280.699589,182.321625 L292.988067,182.321625 L292.988067,173.90219 L280.699589,173.90219 L280.699589,182.321625 Z M416.063029,298.843007 L421.543286,302.588015 L410.582772,302.588015 L416.063029,298.843007 Z M434.889107,298.843007 L440.369364,302.588015 L429.407174,302.588015 L434.889107,298.843007 Z M453.712672,298.843007 L459.192929,302.588015 L448.231577,302.588015 L453.712672,298.843007 Z M463.543789,302.4642 L498.209075,302.4642 L498.209075,270.238474 L463.543789,270.238474 L463.543789,302.4642 Z M463.543789,267.826489 L498.209075,267.826489 L498.209075,266.298095 L463.543789,266.298095 L463.543789,267.826489 Z M463.543789,263.88611 L498.209075,263.88611 L498.209075,257.105216 L463.543789,257.105216 L463.543789,263.88611 Z M463.543789,254.693231 L498.209075,254.693231 L498.209075,253.000822 L463.543789,253.000822 L463.543789,254.693231 Z M471.013896,226.651495 L471.013896,226.649083 C472.531209,208.104939 473.155394,186.754853 471.57273,183.119992 C469.104478,177.455043 466.259201,164.21807 465.596476,149.879624 C465.574693,149.414915 465.651773,148.860158 465.804259,148.321482 L466.257526,148.321482 C466.292714,148.649512 466.318687,149.012114 466.334606,149.407679 C467.261248,171.339054 473.904415,180.441885 477.255742,180.441885 C478.41949,180.441885 478.843433,179.82924 478.996756,179.264032 L479.003459,179.243932 C479.218782,178.918314 479.348646,178.5734 479.41651,178.246978 C479.584076,178.258234 479.743264,178.283158 479.919209,178.283158 L480.506529,178.283158 C480.675771,178.283158 480.828256,178.259038 480.989958,178.248586 C481.087146,179.258404 481.40636,180.653335 482.37238,181.650289 C483.116375,182.4173 484.127638,182.822514 485.296413,182.822514 C487.539288,182.822514 488.88736,184.363772 489.806461,187.976121 C489.859244,188.181944 489.913703,188.689265 489.969838,189.410448 L489.977379,189.50934 C490.122323,191.414808 490.279836,194.798823 490.444051,198.673274 L490.444051,198.674882 L490.66859,204.095416 L490.66859,204.098632 C491.324612,219.965473 492.296497,242.478136 494.321536,250.588837 L489.600354,250.588837 L489.600354,244.633646 C489.600354,243.967938 489.037331,243.427654 488.343607,243.427654 C487.649882,243.427654 487.086859,243.967938 487.086859,244.633646 L487.086859,250.588837 L483.314941,250.588837 L483.314941,230.38766 C483.314941,229.721952 482.751918,229.181667 482.058193,229.181667 C481.364469,229.181667 480.801446,229.721952 480.801446,230.38766 L480.801446,250.588837 L477.02869,250.588837 L477.02869,239.180148 C477.02869,238.514441 476.465667,237.974156 475.771942,237.974156 C475.078218,237.974156 474.515195,238.514441 474.515195,239.180148 L474.515195,250.588837 L467.453111,250.588837 C469.104478,244.68671 470.215442,237.202321 471.013896,226.651495 Z M462.4035,145.909497 L462.4035,145.257457 L465.55626,145.257457 L465.573017,145.259065 L465.584747,145.257457 L469.685095,145.257457 L469.685095,145.909497 L462.4035,145.909497 Z M466.044716,136.41512 C466.506362,137.289867 466.979736,138.647814 466.979736,140.549263 C466.979736,142.018161 466.439335,142.629198 466.168715,142.845472 L465.919879,142.845472 C465.647584,142.626786 465.109696,142.010925 465.109696,140.549263 C465.109696,138.646206 465.583909,137.289063 466.044716,136.41512 Z M477.52301,170.808417 C477.52301,170.798769 477.516308,169.825935 478.170654,169.188367 C478.609678,168.761446 479.295862,168.544367 480.210775,168.544367 C481.127362,168.544367 481.814384,168.76225 482.25257,169.189171 C482.907755,169.827543 482.899376,170.797965 482.898539,170.808417 L482.906079,170.959568 C482.925349,171.653416 482.958025,173.297585 482.907755,173.854754 C482.779566,175.268177 482.062383,175.871173 480.506529,175.871173 L479.919209,175.871173 C478.365869,175.871173 477.64701,175.268177 477.518821,173.851538 C477.4652,173.271857 477.50374,171.506285 477.52301,170.808417 Z M493.673054,194.272206 L492.812601,195.320615 C492.783277,194.655711 492.753953,194.044675 492.724629,193.464191 C493.024572,193.757649 493.340435,194.031811 493.673054,194.272206 Z M498.658153,192.094184 L502.706555,194.636416 L495.133395,205.015187 L493.158625,203.459456 C493.149409,203.241574 493.141031,203.016455 493.131815,202.802592 C493.07568,201.446253 493.023735,200.195237 492.973465,199.023012 L498.658153,192.094184 Z M501.968426,201.123851 C501.532753,201.729259 500.989,201.89649 500.488815,201.88041 L502.22564,199.500585 C502.392369,199.957254 502.40326,200.517639 501.968426,201.123851 Z M508.877186,298.843007 L514.358281,302.588015 L503.396929,302.588015 L508.877186,298.843007 Z M527.702426,298.843007 L533.182683,302.588015 L522.220493,302.588015 L527.702426,298.843007 Z M546.526829,298.843007 L552.007086,302.588015 L541.045734,302.588015 L546.526829,298.843007 Z M15.1773211,298.002028 C13.8828711,298.002028 12.8297167,296.991406 12.8297167,295.749234 C12.8297167,294.513494 13.8778441,293.503676 15.1664293,293.498048 C15.5778046,293.49644 15.9623694,293.301873 16.1961244,292.977059 C16.4290416,292.652245 16.481825,292.237384 16.337718,291.86835 C16.2371782,291.611876 16.1860704,291.348166 16.1860704,291.084455 C16.1860704,289.842283 17.2392249,288.831661 18.5345127,288.831661 C19.6287209,288.831661 20.5670924,289.545609 20.8159284,290.569094 C20.9047385,290.934108 21.1644664,291.238822 21.5205448,291.393189 C22.7596979,291.93267 23.5715568,293.072735 23.6394212,294.369579 C23.6871776,295.292565 23.3579097,296.177763 22.7119415,296.862767 C22.0659733,297.548575 21.181223,297.951376 20.2185544,297.997204 C19.4410466,298.034188 17.4729799,298.018912 16.1919353,298.00846 L15.1773211,298.002028 Z M41.2950484,268.932786 L59.3712672,268.932786 L59.3712672,302.4642 L55.9328059,302.4642 L55.9328059,286.651227 C55.9328059,284.183766 52.2002657,277.046703 51.452082,275.640516 C51.2375971,275.236911 50.8052759,274.982848 50.3327389,274.982848 C49.8610396,274.982848 49.4287185,275.236911 49.2133957,275.640516 C48.465212,277.046703 44.7335097,284.183766 44.7335097,286.651227 L44.7335097,302.4642 L41.2950484,302.4642 L41.2950484,268.932786 Z M41.2950484,266.520801 L59.3712672,266.520801 L59.3712672,232.989387 L41.2950484,232.989387 L41.2950484,266.520801 Z M44.3313505,230.577402 L56.3341273,230.577402 L56.3341273,197.045989 L44.3313505,197.045989 L44.3313505,230.577402 Z M50.3327389,153.596493 L56.15148,194.634004 L44.5139978,194.634004 L50.3327389,153.596493 Z M61.8847622,267.726794 L61.8847622,254.398969 C61.8847622,249.375609 69.3272212,232.100973 74.1120779,221.814661 C78.8960969,232.100973 86.3385558,249.375609 86.3385558,254.398969 L86.3385558,302.4642 L83.9323032,302.4642 L83.9323032,284.436221 C83.9323032,279.770638 76.1438198,263.247738 75.2548804,261.379253 C75.0512873,260.949116 74.6038851,260.673346 74.1120779,260.673346 C73.6194329,260.673346 73.1728686,260.949116 72.9684377,261.379253 C72.0803361,263.247738 64.2910149,279.770638 64.2910149,284.436221 L64.2910149,302.4642 L61.8847622,302.4642 L61.8847622,267.726794 Z M88.8520509,268.932786 L106.929107,268.932786 L106.929107,302.4642 L103.489808,302.4642 L103.489808,286.651227 C103.489808,284.183766 99.758106,277.046703 99.0099223,275.640516 C98.7945996,275.236911 98.3622784,274.982848 97.8905792,274.982848 C97.4180421,274.982848 96.985721,275.237715 96.771236,275.640516 C96.0230523,277.046703 92.29135,284.183766 92.29135,286.651227 L92.29135,302.4642 L88.8520509,302.4642 L88.8520509,268.932786 Z M88.8520509,266.520801 L106.929107,266.520801 L106.929107,232.989387 L88.8520509,232.989387 L88.8520509,266.520801 Z M91.8891908,230.577402 L103.891968,230.577402 L103.891968,197.045989 L91.8891908,197.045989 L91.8891908,230.577402 Z M97.8905792,153.598101 L103.70932,194.634004 L92.0718381,194.634004 L97.8905792,153.598101 Z M94.8048451,302.4642 L94.8048451,286.651227 C94.8048451,285.54493 96.3707525,281.98082 97.8905792,278.919207 C99.4104059,281.98082 100.976313,285.54493 100.976313,286.651227 L100.976313,302.4642 L94.8048451,302.4642 Z M66.8045099,302.4642 L66.8045099,284.436221 C66.8045099,281.405964 71.3572873,270.842274 74.1120779,264.833216 C76.8668685,270.84147 81.4188081,281.40516 81.4188081,284.436221 L81.4188081,302.4642 L66.8045099,302.4642 Z M47.2470048,302.4642 L47.2470048,286.651227 C47.2470048,285.54493 48.8129122,281.98082 50.3327389,278.918403 C51.8525656,281.98082 53.4193108,285.54493 53.4193108,286.651227 L53.4193108,302.4642 L47.2470048,302.4642 Z M130.803959,293.607391 C130.803959,292.478582 131.471711,291.464745 132.545811,290.962248 C132.884295,290.804665 133.130618,290.510403 133.217752,290.159057 C133.305725,289.808515 133.225293,289.438678 132.998241,289.150847 C132.27603,288.234293 131.894816,287.147292 131.894816,286.008835 C131.894816,283.127317 134.337933,280.782868 137.340722,280.782868 C140.343511,280.782868 142.786628,283.127317 142.786628,286.008835 C142.786628,286.554748 142.696142,287.097444 142.517684,287.623257 C142.353469,288.109674 142.526063,288.642723 142.949168,288.953869 C144.055943,289.765903 144.690182,290.9928 144.690182,292.320195 C144.690182,294.659017 142.707872,296.561269 140.271457,296.561269 L133.882153,296.561269 C132.184706,296.561269 130.803959,295.236285 130.803959,293.607391 Z M229.747693,298.002028 C228.454081,298.002028 227.400926,296.991406 227.400926,295.749234 C227.400926,294.513494 228.449054,293.503676 229.737639,293.498048 C230.149014,293.49644 230.532741,293.301873 230.766496,292.977059 C231.000251,292.652245 231.053035,292.237384 230.90809,291.86835 C230.80755,291.611876 230.75728,291.348166 230.75728,291.084455 C230.75728,289.842283 231.810435,288.831661 233.104885,288.831661 C234.199093,288.831661 235.137464,289.545609 235.3863,290.569094 C235.47511,290.934108 235.735676,291.238822 236.090917,291.393189 C237.33007,291.93267 238.142767,293.072735 238.209793,294.369579 C238.257549,295.292565 237.929119,296.177763 237.283151,296.862767 C236.637183,297.548575 235.751595,297.951376 234.789764,297.997204 C234.012256,298.034188 232.043352,298.018912 230.763145,298.00846 L229.747693,298.002028 Z M311.706903,290.447691 C311.706903,288.895177 312.512059,287.454418 313.860968,286.591731 C314.263965,286.334453 314.476774,285.877784 314.40891,285.418703 C314.362829,285.106753 314.341045,284.851082 314.341045,284.612296 C314.341045,281.479127 316.996972,278.930463 320.262002,278.930463 C323.525356,278.930463 326.181283,281.479127 326.181283,284.612296 C326.181283,285.471766 325.978528,286.307117 325.577206,287.095836 C325.401262,287.441554 325.408802,287.847571 325.596476,288.187661 C325.784151,288.527751 326.130175,288.761714 326.526469,288.817189 C328.125052,289.0407 329.33153,290.377744 329.33153,291.927846 C329.33153,293.663671 327.85946,295.07629 326.050581,295.07629 L316.531137,295.07629 C313.871022,295.07629 311.706903,292.999571 311.706903,290.447691 Z M342.706675,276.463807 L355.380555,276.463807 L355.388096,276.465415 L355.404852,276.463807 L388.134747,276.463807 L388.134747,302.4642 L380.930233,302.4642 L380.930233,296.955226 C380.930233,296.289519 380.36721,295.749234 379.673485,295.749234 C378.97976,295.749234 378.416737,296.289519 378.416737,296.955226 L378.416737,302.4642 L371.373924,302.4642 L371.373924,286.110942 C371.373924,285.445235 370.810901,284.90495 370.117177,284.90495 C369.422614,284.90495 368.860429,285.445235 368.860429,286.110942 L368.860429,302.4642 L361.24789,302.4642 L361.24789,289.204715 C361.24789,288.538203 360.684868,287.998723 359.991143,287.998723 C359.297418,287.998723 358.734395,288.538203 358.734395,289.204715 L358.734395,302.4642 L352.425523,302.4642 L352.425523,292.509938 C352.425523,291.84423 351.8625,291.303946 351.168775,291.303946 C350.475051,291.303946 349.912028,291.84423 349.912028,292.509938 L349.912028,302.4642 L342.706675,302.4642 L342.706675,276.463807 Z M343.909801,266.230559 L352.29147,274.051822 L342.875917,274.051822 L343.909801,266.230559 Z M347.975799,95.1444511 L363.995141,95.1444511 L343.423859,250.740792 L347.975799,95.1444511 Z M350.092161,92.7324662 L380.750099,92.7324662 L380.750099,89.2165962 L350.092161,89.2165962 L350.092161,92.7324662 Z M382.864786,95.1444511 L387.417563,250.739184 L366.84712,95.1444511 L382.864786,95.1444511 Z M384.855474,250.527733 L386.381166,262.064257 L349.064142,227.244843 L350.254701,218.242512 L384.855474,250.527733 Z M382.823732,235.156154 L384.348586,246.691069 L350.650157,215.24763 L351.840716,206.246103 L382.823732,235.156154 Z M380.791152,219.781358 L382.316006,231.318686 L352.236173,203.250418 L353.426732,194.24889 L380.791152,219.781358 Z M378.758573,204.409778 L380.283426,215.94389 L353.822188,191.254813 L355.012747,182.251677 L378.758573,204.409778 Z M376.725993,189.034983 L378.251685,200.571506 L355.408204,179.256796 L356.598762,170.254464 L376.725993,189.034983 Z M374.693413,173.662599 L376.219105,185.196711 L356.994219,167.260387 L358.184778,158.257252 L374.693413,173.662599 Z M372.661672,158.289411 L374.186525,169.824327 L358.581072,155.261566 L359.770793,146.260843 L372.661672,158.289411 Z M370.629092,142.91542 L372.153946,154.451139 L360.167088,143.265962 L361.356809,134.26363 L370.629092,142.91542 Z M368.596512,127.542232 L370.121366,139.077952 L361.752265,131.267945 L362.942824,122.266417 L368.596512,127.542232 Z M364.925134,107.273519 L365.42113,103.520471 L366.057044,108.329968 L364.925134,107.273519 Z M366.563933,112.167436 L368.089624,123.704764 L363.339118,119.271536 L364.529677,110.2684 L366.563933,112.167436 Z M347.478127,239.242056 L348.668685,230.239724 L386.888054,265.900921 L387.965505,274.051822 L384.783421,274.051822 L347.478127,239.242056 Z M366.73485,274.051822 L355.897497,274.051822 L344.306096,263.236482 L345.496655,254.23415 L366.73485,274.051822 Z M345.892111,251.239269 L347.081832,242.236937 L381.178231,274.051822 L370.340878,274.051822 L345.892111,251.239269 Z M558.743252,302.588015 L556.339513,302.588015 L547.255742,296.379566 C546.819232,296.081284 546.235263,296.081284 545.797915,296.379566 L537.114627,302.313049 L528.432178,296.379566 C527.994829,296.081284 527.410861,296.081284 526.973513,296.379566 L518.289387,302.313049 L509.606099,296.379566 C509.168751,296.081284 508.584783,296.081284 508.148272,296.379566 L500.72257,301.454382 L500.72257,270.238474 L503.453901,270.238474 C504.147626,270.238474 504.710649,269.698189 504.710649,269.032481 C504.710649,268.366774 504.147626,267.826489 503.453901,267.826489 L500.72257,267.826489 L500.72257,266.298095 L503.453901,266.298095 C504.147626,266.298095 504.710649,265.758614 504.710649,265.092102 C504.710649,264.426394 504.147626,263.88611 503.453901,263.88611 L500.72257,263.88611 L500.72257,257.105216 L501.832697,257.105216 C502.526422,257.105216 503.089445,256.564932 503.089445,255.899224 C503.089445,255.233516 502.526422,254.693231 501.832697,254.693231 L500.72257,254.693231 L500.72257,251.794829 C500.72257,251.129122 500.159547,250.588837 499.465822,250.588837 L496.912111,250.588837 C494.973369,243.922915 493.937809,222.06792 493.292679,206.685084 L494.587966,207.70455 C494.814181,207.883037 495.095692,207.978712 495.384744,207.978712 L495.555662,207.96826 C495.901686,207.922432 496.21336,207.739122 496.414439,207.464959 L498.939664,204.002957 C499.44739,204.167776 500.00371,204.277119 500.580139,204.277119 C501.802535,204.277119 503.088607,203.814018 504.036194,202.493054 C505.497373,200.461359 504.759243,198.533379 503.801601,197.341055 L505.50994,194.999821 C505.705993,194.732091 505.778884,194.400845 505.714371,194.079247 C505.650696,193.759257 505.453806,193.477055 505.168943,193.298568 L499.071204,189.471552 C498.524937,189.129854 497.799375,189.244825 497.39554,189.735262 L495.22807,192.37719 C494.225185,191.675302 493.110031,190.17344 492.454847,189.016491 C492.38782,188.22536 492.319956,187.689095 492.247902,187.404481 C491.484638,184.402364 489.932973,180.410529 485.296413,180.410529 C484.677255,180.410529 484.383176,180.182194 484.21561,180.010139 C483.613209,179.392671 483.474129,178.166579 483.465751,177.488007 C484.57504,176.773256 485.272116,175.607463 485.411196,174.063793 C485.486601,173.238894 485.423763,171.051223 485.415385,170.803593 L485.412034,170.741685 C485.40952,170.587318 485.391088,170.333256 485.339142,170.030954 L487.458019,168.980936 C488.075501,168.676222 488.317634,167.947803 487.999258,167.356867 C487.680882,166.765126 486.921806,166.532772 486.306,166.837486 L484.328717,167.817556 C484.239907,167.712232 484.156124,167.606105 484.053071,167.505606 L483.897234,167.384202 L486.243163,164.595144 C486.679673,164.077371 486.595052,163.317596 486.054651,162.899518 C485.515087,162.479833 484.723336,162.561037 484.287664,163.080417 L481.598224,166.277905 L481.470036,166.245746 L481.470036,161.219169 C481.470036,160.553461 480.907013,160.013177 480.213288,160.013177 C479.519563,160.013177 478.95654,160.553461 478.95654,161.219169 L478.95654,166.244138 L478.862703,166.267453 L476.181642,163.080417 C475.746807,162.561841 474.954218,162.480637 474.414655,162.899518 C473.874253,163.316792 473.79047,164.076567 474.226143,164.595144 L476.555315,167.364103 L476.349208,167.52651 C476.25956,167.615753 476.190858,167.710624 476.112102,167.803888 L474.164143,166.837486 C473.547499,166.53438 472.789261,166.765126 472.470885,167.356063 C472.152509,167.947803 472.393805,168.675418 473.010449,168.980936 L475.084082,170.008442 C475.006164,170.445011 475.00784,170.755353 475.011191,170.803593 C475.002813,171.050419 474.939138,173.239698 475.01538,174.063793 C475.151109,175.557615 475.81132,176.696072 476.85861,177.416452 L476.798286,177.746089 C474.681085,176.133276 469.633987,167.947803 468.846425,149.309592 C468.831344,148.95503 468.807885,148.63102 468.778561,148.321482 L470.941843,148.321482 C471.636405,148.321482 472.19859,147.781197 472.19859,147.115489 L472.19859,144.051465 C472.19859,143.384953 471.636405,142.845472 470.941843,142.845472 L469.078505,142.845472 C469.324827,142.216748 469.493232,141.467425 469.493232,140.549263 C469.493232,135.806496 467.009061,133.524759 466.903494,133.430691 L466.725036,133.324564 C466.654658,133.280344 466.590983,133.230496 466.51474,133.199945 L466.296904,133.152509 C466.212283,133.135625 466.129337,133.113113 466.043041,133.113113 L465.86542,133.140449 C465.764043,133.154921 465.665179,133.166177 465.56799,133.204769 L465.453207,133.273108 C465.361883,133.320544 465.267208,133.359136 465.187614,133.429887 C465.08121,133.524759 462.596201,135.806496 462.596201,140.549263 C462.596201,141.467425 462.765443,142.216748 463.011766,142.845472 L461.146752,142.845472 C460.453028,142.845472 459.890005,143.384953 459.890005,144.051465 L459.890005,147.115489 C459.890005,147.781197 460.453028,148.321482 461.146752,148.321482 L463.223737,148.321482 C463.109792,148.893122 463.06036,149.460743 463.085495,149.986555 C463.760787,164.605596 466.699901,178.189091 469.254449,184.051018 C470.476008,186.857764 470.12747,206.679456 468.507941,226.469792 L468.507941,226.472204 L468.507104,226.477028 C467.691893,237.253777 466.554956,244.751834 464.846617,250.588837 L462.287041,250.588837 C461.593316,250.588837 461.030294,251.129122 461.030294,251.794829 L461.030294,254.693231 L459.921004,254.693231 C459.22728,254.693231 458.664257,255.233516 458.664257,255.899224 C458.664257,256.564932 459.22728,257.105216 459.921004,257.105216 L461.030294,257.105216 L461.030294,263.88611 L458.2998,263.88611 C457.605238,263.88611 457.043053,264.426394 457.043053,265.092102 C457.043053,265.758614 457.605238,266.298095 458.2998,266.298095 L461.030294,266.298095 L461.030294,267.826489 L458.2998,267.826489 C457.605238,267.826489 457.043053,268.366774 457.043053,269.032481 C457.043053,269.698189 457.605238,270.238474 458.2998,270.238474 L461.030294,270.238474 L461.030294,300.883546 L454.441585,296.379566 C454.005075,296.081284 453.420268,296.081284 452.983758,296.379566 L444.30047,302.313049 L435.618021,296.379566 C435.18151,296.081284 434.597542,296.081284 434.160193,296.379566 L425.47523,302.313049 L416.79278,296.379566 C416.355432,296.081284 415.771463,296.081284 415.334115,296.379566 L406.251182,302.588015 L390.648242,302.588015 L390.648242,275.257814 L390.646567,275.239323 L390.647405,275.224047 L385.342254,93.9046909 C385.323822,93.252651 384.767502,92.7324662 384.086345,92.7324662 L383.263594,92.7324662 L383.263594,88.0114078 C383.263594,87.344896 382.700571,86.8054154 382.006846,86.8054154 L366.677878,86.8054154 L366.677878,36.2059924 C366.677878,35.5394806 366.114855,35 365.42113,35 C364.727405,35 364.164383,35.5394806 364.164383,36.2059924 L364.164383,86.8054154 L348.835414,86.8054154 C348.141689,86.8054154 347.578666,87.344896 347.578666,88.0114078 L347.578666,92.7324662 L346.75424,92.7324662 C346.073083,92.7324662 345.516763,93.252651 345.49833,93.9046909 L340.194018,275.224047 L340.194856,275.239323 L340.19318,275.257814 L340.19318,302.588015 L321.775126,302.588015 L321.775126,297.488275 L326.050581,297.488275 C329.245233,297.488275 331.845025,294.994283 331.845025,291.927846 C331.845025,289.691936 330.425738,287.706068 328.367186,286.83695 C328.585022,286.114962 328.694778,285.370463 328.694778,284.612296 C328.694778,280.14932 324.91113,276.518478 320.262002,276.518478 C315.611198,276.518478 311.82755,280.14932 311.82755,284.612296 C311.82755,284.749779 311.831739,284.888066 311.841793,285.031981 C310.170319,286.363397 309.193407,288.338008 309.193407,290.447691 C309.193407,294.330183 312.48441,297.488275 316.531137,297.488275 L319.261631,297.488275 L319.261631,302.588015 L300.528552,302.588015 L300.528552,268.02588 C300.528552,267.360172 299.965529,266.819887 299.271805,266.819887 L295.501562,266.819887 L295.501562,160.559089 C295.501562,159.893381 294.938539,159.353097 294.244814,159.353097 L293.196687,159.353097 L293.196687,139.05142 C293.196687,138.385712 292.633664,137.845428 291.939939,137.845428 L290.334654,137.845428 L290.334654,124.981508 C290.334654,124.3158 289.771631,123.775516 289.077906,123.775516 L262.896504,123.775516 C262.201941,123.775516 261.639756,124.3158 261.639756,124.981508 L261.639756,137.845428 L260.034471,137.845428 C259.339908,137.845428 258.777723,138.385712 258.777723,139.05142 L258.777723,159.353097 L257.729596,159.353097 C257.035033,159.353097 256.472848,159.893381 256.472848,160.559089 L256.472848,266.819887 L252.702606,266.819887 C252.008043,266.819887 251.445858,267.360172 251.445858,268.02588 L251.445858,302.588015 L234.064202,302.588015 L234.064202,300.426877 C234.407713,300.422857 234.705143,300.416425 234.915439,300.405973 C236.547535,300.327985 238.050605,299.64459 239.146489,298.481209 C240.243211,297.317828 240.802044,295.815162 240.719937,294.248979 C240.615208,292.23658 239.458162,290.447691 237.657662,289.456365 C236.959748,287.641749 235.165951,286.419676 233.104885,286.419676 C230.424661,286.419676 228.243785,288.511671 228.243785,291.084455 C228.243785,291.160835 228.245461,291.237214 228.24965,291.314398 C226.301691,291.922218 224.887431,293.683771 224.887431,295.749234 C224.887431,298.321214 227.067469,300.414013 229.747693,300.414013 L230.742199,300.420445 C230.990197,300.422857 231.265844,300.424465 231.550707,300.426877 L231.550707,302.588015 L212.78579,302.588015 L212.78579,263.976961 C212.78579,263.311253 212.223605,262.770969 211.529043,262.770969 L205.839328,262.770969 L205.839328,244.878865 C205.839328,244.213157 205.277143,243.672872 204.58258,243.672872 L197.765982,243.672872 L197.765982,152.575419 L199.730697,152.575419 C200.425259,152.575419 200.987444,152.035135 200.987444,151.369427 C200.987444,150.703719 200.425259,150.163434 199.730697,150.163434 L194.01082,150.163434 L194.01082,133.232908 C194.01082,131.356384 193.416797,129.610107 192.400507,128.157288 L192.400507,126.264684 C192.400507,124.761213 191.938024,123.363066 191.148787,122.182802 L191.148787,119.962168 C191.148787,118.649244 190.733222,117.427171 190.021903,116.411726 L190.021903,113.917733 C190.021903,112.625714 189.536799,111.440625 188.733318,110.519247 L188.733318,108.470668 C188.733318,106.648815 187.472381,105.122029 185.7498,104.604256 L185.7498,79.3017304 C185.7498,78.6352186 185.186777,78.0957379 184.493052,78.0957379 C183.79849,78.0957379 183.236304,78.6352186 183.236304,79.3017304 L183.236304,104.604256 C181.513722,105.122029 180.251948,106.648815 180.251948,108.470668 L180.251948,110.519247 C179.448467,111.440625 178.963363,112.625714 178.963363,113.917733 L178.963363,116.411726 C178.252882,117.427171 177.837317,118.649244 177.837317,119.962168 L177.837317,122.182802 C177.04808,123.363066 176.584759,124.761213 176.584759,126.264684 L176.584759,128.157288 C175.569307,129.610107 174.974446,131.356384 174.974446,133.232908 L174.974446,150.163434 L169.254569,150.163434 C168.560845,150.163434 167.997822,150.703719 167.997822,151.369427 C167.997822,152.035135 168.560845,152.575419 169.254569,152.575419 L171.220122,152.575419 L171.220122,243.672872 L164.402686,243.672872 C163.708961,243.672872 163.145938,244.213157 163.145938,244.878865 L163.145938,262.770969 L157.456223,262.770969 C156.762499,262.770969 156.199476,263.311253 156.199476,263.976961 L156.199476,302.588015 L139.044872,302.588015 L139.044872,298.973254 L140.271457,298.973254 C144.093646,298.973254 147.203677,295.988824 147.203677,292.320195 C147.203677,290.513619 146.456331,288.826033 145.128368,287.579037 C145.242313,287.062872 145.300123,286.536256 145.300123,286.008835 C145.300123,281.797509 141.729285,278.370883 137.340722,278.370883 C132.951322,278.370883 129.381321,281.797509 129.381321,286.008835 C129.381321,287.245379 129.68713,288.438508 130.276125,289.519881 C129.026918,290.522463 128.290464,291.999401 128.290464,293.607391 C128.290464,296.566093 130.798095,298.973254 133.882153,298.973254 L136.531377,298.973254 L136.531377,302.588015 L109.442603,302.588015 L109.442603,268.932786 L111.061293,268.932786 C111.755018,268.932786 112.318041,268.392501 112.318041,267.726794 C112.318041,267.061086 111.755018,266.520801 111.061293,266.520801 L109.442603,266.520801 L109.442603,232.989387 L109.623574,232.989387 C110.317299,232.989387 110.880322,232.449103 110.880322,231.783395 C110.880322,231.117687 110.317299,230.577402 109.623574,230.577402 L106.405463,230.577402 L106.405463,197.045989 L109.623574,197.045989 C110.317299,197.045989 110.880322,196.505704 110.880322,195.839996 C110.880322,195.174288 110.317299,194.634004 109.623574,194.634004 L106.245437,194.634004 L99.1590564,144.652853 L99.1665968,144.598181 C99.2160289,144.254071 99.076111,143.905138 98.837329,143.643035 C98.3606028,143.118026 97.3903937,143.118026 96.9136674,143.643035 C96.6748854,143.905138 96.5659673,144.254071 96.6145615,144.598181 L96.622102,144.652853 L89.5357216,194.634004 L86.1575842,194.634004 C85.4638595,194.634004 84.9008366,195.174288 84.9008366,195.839996 C84.9008366,196.505704 85.4638595,197.045989 86.1575842,197.045989 L89.3756957,197.045989 L89.3756957,230.577402 L86.1575842,230.577402 C85.4638595,230.577402 84.9008366,231.117687 84.9008366,231.783395 C84.9008366,232.449103 85.4638595,232.989387 86.1575842,232.989387 L86.3385558,232.989387 L86.3385558,244.499379 C82.7124203,234.255679 76.3448994,220.685048 75.3688255,218.621193 L75.3688255,215.737263 L76.4806281,215.737263 C77.1751906,215.737263 77.7373757,215.196979 77.7373757,214.531271 C77.7373757,213.865563 77.1751906,213.325278 76.4806281,213.325278 L75.3688255,213.325278 L75.3688255,210.180854 C75.3688255,209.514342 74.8058026,208.974862 74.1120779,208.974862 C73.4175155,208.974862 72.8553304,209.514342 72.8553304,210.180854 L72.8553304,213.325278 L71.2986391,213.325278 C70.6049145,213.325278 70.0418916,213.865563 70.0418916,214.531271 C70.0418916,215.196979 70.6049145,215.737263 71.2986391,215.737263 L72.8553304,215.737263 L72.8553304,218.621193 C71.8784187,220.685048 65.5108978,234.255679 61.8847622,244.499379 L61.8847622,232.989387 L62.0657339,232.989387 C62.7602964,232.989387 63.3224814,232.449103 63.3224814,231.783395 C63.3224814,231.117687 62.7602964,230.577402 62.0657339,230.577402 L58.8476224,230.577402 L58.8476224,197.045989 L62.0657339,197.045989 C62.7602964,197.045989 63.3224814,196.505704 63.3224814,195.839996 C63.3224814,195.174288 62.7602964,194.634004 62.0657339,194.634004 L58.6884343,194.634004 L51.6012161,144.651245 L51.6087565,144.598181 C51.6573508,144.254071 51.5182707,143.905138 51.2794887,143.643035 C50.8019246,143.118026 49.8325534,143.118026 49.3558271,143.643035 C49.1170451,143.905138 49.008127,144.254071 49.0567212,144.598181 L49.0642617,144.651245 L41.9778812,194.634004 L38.5997439,194.634004 C37.9060192,194.634004 37.3429963,195.174288 37.3429963,195.839996 C37.3429963,196.505704 37.9060192,197.045989 38.5997439,197.045989 L41.8178554,197.045989 L41.8178554,230.577402 L38.5997439,230.577402 C37.9060192,230.577402 37.3429963,231.117687 37.3429963,231.783395 C37.3429963,232.449103 37.9060192,232.989387 38.5997439,232.989387 L38.7815533,232.989387 L38.7815533,266.520801 L37.1620247,266.520801 C36.4683,266.520801 35.9052771,267.061086 35.9052771,267.726794 C35.9052771,268.392501 36.4683,268.932786 37.1620247,268.932786 L38.7815533,268.932786 L38.7815533,302.588015 L19.4929921,302.588015 L19.4929921,300.426877 C19.8365031,300.422857 20.1339334,300.416425 20.345067,300.405973 C21.9771631,300.327985 23.4793953,299.64459 24.576117,298.481209 C25.6720009,297.317828 26.2308346,295.815162 26.1495649,294.248979 C26.044836,292.23658 24.8869526,290.447691 23.0864523,289.456365 C22.3893763,287.641749 20.5955786,286.419676 18.5345127,286.419676 C15.8534513,286.419676 13.6725754,288.511671 13.6725754,291.084455 C13.6725754,291.160835 13.674251,291.237214 13.6784402,291.314398 C11.7304815,291.922218 10.3162216,293.683771 10.3162216,295.749234 C10.3162216,298.321214 12.4970975,300.414013 15.1773211,300.414013 L16.1718273,300.420445 C16.4189877,300.422857 16.6954721,300.424465 16.9794971,300.426877 L16.9794971,302.588015 L1.25674754,302.588015 C0.562185065,302.588015 0,303.1283 0,303.794008 C0,304.459715 0.562185065,305 1.25674754,305 L558.743252,305 C559.436977,305 560,304.459715 560,303.794008 C560,303.1283 559.436977,302.588015 558.743252,302.588015 L558.743252,302.588015 Z" id="Fill-39"></path>
                    <path d="M299.499538,3 C300.326455,3 301,2.32737912 301,1.50046196 C301,0.673544811 300.326455,0 299.499538,0 C298.672621,0 298,0.673544811 298,1.50046196 C298,2.32737912 298.672621,3 299.499538,3" id="Fill-40"></path>
                    <path d="M414.499538,172 C415.327379,172 416,171.326248 416,170.5 C416,169.672828 415.327379,169 414.499538,169 C413.673545,169 413,169.672828 413,170.5 C413,171.326248 413.673545,172 414.499538,172" id="Fill-41"></path>
                    <path d="M216.499538,33 C217.327379,33 218,32.3271719 218,31.5 C218,30.6728281 217.327379,30 216.499538,30 C215.672621,30 215,30.6728281 215,31.5 C215,32.3271719 215.672621,33 216.499538,33" id="Fill-42"></path>
                    <path d="M501.499581,82 C502.326821,82 503,81.3266332 503,80.5 C503,79.6725293 502.326821,79 501.499581,79 C500.672342,79 500,79.6725293 500,80.5 C500,81.3266332 500.672342,82 501.499581,82" id="Fill-43"></path>
                    <path d="M318,80 C319.10223,80 320,79.1030711 320,78 C320,76.8977703 319.10223,76 318,76 C316.896929,76 316,76.8977703 316,78 C316,79.1030711 316.896929,80 318,80" id="Fill-44"></path>
                    <path d="M31.5507724,117.718364 C32.0147199,118.093879 32.6843092,118.093879 33.1474208,117.718364 L40.4476988,111.818937 L47.744633,117.718364 C48.2077447,118.093879 48.8781698,118.093061 49.3421174,117.719182 L56.6449032,111.818937 L63.9476891,117.719182 C64.1817527,117.908167 64.464301,117.999795 64.7451773,117.999795 C65.1063041,117.999795 65.4649231,117.848444 65.7131977,117.553923 C66.1537389,117.031966 66.0785042,116.258029 65.5443375,115.826064 L57.4432275,109.281145 C56.9792799,108.907266 56.3105266,108.907266 55.846579,109.281145 L48.5437932,115.18139 L41.246023,109.281963 C40.7829114,108.906448 40.1133222,108.906448 39.6493746,109.281963 L32.3490966,115.18139 L25.0529983,109.281963 C24.5179957,108.84918 23.7280309,108.922811 23.2874896,109.446404 C22.8461125,109.96918 22.9213472,110.742298 23.4555139,111.173445 L31.5507724,117.718364" id="Fill-45"></path>
                    <path d="M422.550948,40.718261 C423.014893,41.0929584 423.683643,41.0937765 424.147588,40.7190791 L431.447829,34.8188212 L438.744726,40.718261 C439.208671,41.0937765 439.877421,41.0937765 440.341366,40.7190791 L447.644115,34.8188212 L454.9477,40.7190791 C455.180926,40.908064 455.464309,40.9996931 455.745184,40.9996931 C456.107145,40.9996931 456.464926,40.8475234 456.713199,40.5538195 C457.153738,40.0310429 457.078504,39.2571045 456.54434,38.825957 L448.443271,32.2810231 C447.979326,31.9063256 447.30974,31.9063256 446.845795,32.2810231 L439.543046,38.181281 L432.246149,32.2818412 C431.782204,31.9071438 431.112618,31.9063256 430.648673,32.2810231 L423.349268,38.181281 L416.052371,32.2818412 C415.518207,31.8490575 414.728246,31.9235061 414.286871,32.4462827 C413.846332,32.9682412 413.921566,33.7421796 414.454894,34.1733271 L422.550948,40.718261" id="Fill-46"></path>
                    <path d="M421.450308,209.225142 C421.972998,209.225142 422.493176,209.315787 422.998275,209.494692 C423.375216,209.63066 423.797389,209.585338 424.131609,209.373037 C424.468342,209.162327 424.676915,208.811673 424.694506,208.430803 C424.850308,205.041148 427.770338,202.385401 431.342055,202.385401 C434.816605,202.385401 437.668785,204.861448 437.975363,208.14535 C438.031486,208.748062 438.554176,209.215601 439.191624,209.231503 C441.60069,209.295114 443.487066,211.135053 443.487066,213.419473 C443.487066,215.732517 441.505198,217.614599 439.06849,217.614599 L421.450308,217.614599 C419.013599,217.614599 417.031732,215.732517 417.031732,213.419473 C417.031732,211.106429 419.013599,209.225142 421.450308,209.225142 Z M413.256467,209.379398 L415.99054,209.379398 C415.071643,210.495766 414.518798,211.895997 414.518798,213.419473 C414.518798,217.047668 417.628135,220 421.450308,220 L439.06849,220 C442.890663,220 446,217.047668 446,213.419473 C446,210.179303 443.582557,207.509243 440.328307,206.951855 C439.471397,202.926092 435.774871,200 431.342055,200 C426.936043,200 423.249569,202.932453 422.372555,206.899376 C422.067652,206.859619 421.758561,206.839741 421.450308,206.839741 C420.942695,206.839741 420.448485,206.8954 419.971027,206.993997 L413.256467,206.993997 C412.562897,206.993997 412,207.528327 412,208.186697 C412,208.845068 412.562897,209.379398 413.256467,209.379398 L413.256467,209.379398 Z" id="Fill-47"></path>
                    <path d="M402.282234,214 L411.717766,214 C412.425559,214 413,213.552 413,213 C413,212.447333 412.425559,212 411.717766,212 L402.282234,212 C401.574441,212 401,212.447333 401,213 C401,213.552 401.574441,214 402.282234,214" id="Fill-48"></path>
                    <path d="M411.767461,217 L407.232539,217 C406.552177,217 406,217.448 406,218 C406,218.552 406.552177,219 407.232539,219 L411.767461,219 C412.447823,219 413,218.552 413,218 C413,217.448 412.447823,217 411.767461,217" id="Fill-49"></path>
                    <path d="M419.183432,202 C418.530178,202 418,202.447333 418,203 C418,203.552 418.530178,204 419.183432,204 L420.816568,204 C421.469822,204 422,203.552 422,203 C422,202.447333 421.469822,202 420.816568,202 L419.183432,202" id="Fill-50"></path>
                    <path d="M124.607549,41.7357241 L124.612534,41.7357241 L124.760406,41.7438659 C125.262174,41.757707 125.760619,41.4491322 125.953351,40.9712076 C126.817322,38.8282817 128.907468,37.4425447 131.275913,37.4425447 C134.429408,37.4425447 136.993908,39.928241 136.990585,43.0400429 L136.983108,43.1654269 C136.964832,43.6124126 137.196609,44.0341586 137.58955,44.2637578 C137.980829,44.493357 138.470136,44.4941712 138.863077,44.2662004 C139.752801,43.7500093 140.763814,43.4772584 141.78978,43.4772584 C144.942445,43.4772584 147.507775,45.9629547 147.507775,49.017764 C147.507775,52.0725732 144.942445,54.5574553 141.78978,54.5574553 L124.574319,54.5574553 C120.925702,54.5574553 117.957462,51.6809519 117.957462,48.1449613 C117.957462,44.6114133 120.92321,41.7357241 124.607549,41.7357241 Z M112.246113,42.3789275 L117.679994,42.3789275 C116.305117,43.9299434 115.465237,45.941786 115.465237,48.1449613 C115.465237,49.5999038 115.834917,50.9701713 116.47708,52.1816735 L112.246113,52.1816735 C111.558258,52.1816735 111,52.7288035 111,53.4029459 C111,54.0779024 111.558258,54.6242182 112.246113,54.6242182 L116.830976,54.6242182 C117.254654,54.6242182 117.627657,54.4166019 117.852788,54.0998853 C119.519256,55.8764294 121.910962,57 124.574319,57 L141.78978,57 C146.316491,57 150,53.4192295 150,49.017764 C150,44.6154843 146.316491,41.0347137 141.78978,41.0347137 C140.951561,41.0347137 140.12082,41.1609119 139.3258,41.4067947 C138.570656,37.757633 135.24852,35 131.275913,35 C128.168108,35 125.393431,36.6658155 123.991139,39.3086488 C123.003387,39.3697124 122.062157,39.591984 121.183232,39.9363828 L112.246113,39.9363828 C111.558258,39.9363828 111,40.4826986 111,41.1576552 C111,41.8317975 111.558258,42.3789275 112.246113,42.3789275 L112.246113,42.3789275 Z" id="Fill-51"></path>
                    <path d="M104.282234,47 L113.717766,47 C114.426414,47 115,46.552 115,46 C115,45.4473333 114.426414,45 113.717766,45 L104.282234,45 C103.574441,45 103,45.4473333 103,46 C103,46.552 103.574441,47 104.282234,47" id="Fill-52"></path>
                    <path d="M106.081991,52 C105.484011,52 105,52.448 105,53 C105,53.5526667 105.484011,54 106.081991,54 L106.918009,54 C107.515268,54 108,53.5526667 108,53 C108,52.448 107.515268,52 106.918009,52 L106.081991,52" id="Fill-53"></path>
                    <path d="M121.081991,37 L121.918009,37 C122.515989,37 123,36.552 123,36 C123,35.4473333 122.515989,35 121.918009,35 L121.081991,35 C120.484732,35 120,35.4473333 120,36 C120,36.552 120.484732,37 121.081991,37" id="Fill-54"></path>
                    <path d="M504.187111,163.686977 L505.313284,163.686977 L505.313284,164.813023 C505.313284,165.468234 505.844319,166 506.500396,166 C507.155681,166 507.687507,165.468234 507.687507,164.813023 L507.687507,163.686977 L508.812889,163.686977 C509.468174,163.686977 510,163.155211 510,162.5 C510,161.844789 509.468174,161.313023 508.812889,161.313023 L507.687507,161.313023 L507.687507,160.186977 C507.687507,159.531766 507.155681,159 506.500396,159 C505.844319,159 505.313284,159.531766 505.313284,160.186977 L505.313284,161.313023 L504.187111,161.313023 C503.531826,161.313023 503,161.844789 503,162.5 C503,163.155211 503.531826,163.686977 504.187111,163.686977" id="Fill-55"></path>
                    <path d="M528.290014,279.146297 L530.210416,279.146297 L530.210416,280.853321 C530.210416,281.486288 530.788342,282 531.50043,282 C532.212518,282 532.790444,281.486288 532.790444,280.853321 L532.790444,279.146297 L534.709986,279.146297 C535.422074,279.146297 536,278.633349 536,277.999618 C536,277.366651 535.422074,276.852938 534.709986,276.852938 L532.790444,276.852938 L532.790444,275.146679 C532.790444,274.513712 532.212518,274 531.50043,274 C530.788342,274 530.210416,274.513712 530.210416,275.146679 L530.210416,276.852938 L528.290014,276.852938 C527.577926,276.852938 527,277.366651 527,277.999618 C527,278.633349 527.577926,279.146297 528.290014,279.146297" id="Fill-56"></path>
                    <path d="M149.790444,246.146679 C149.790444,245.513712 149.212518,245 148.50043,245 C147.787482,245 147.210416,245.513712 147.210416,246.146679 L147.210416,247.852938 L145.290014,247.852938 C144.577066,247.852938 144,248.366651 144,248.999618 C144,249.633349 144.577066,250.146297 145.290014,250.146297 L147.210416,250.146297 L147.210416,251.853321 C147.210416,252.486288 147.787482,253 148.50043,253 C149.212518,253 149.790444,252.486288 149.790444,251.853321 L149.790444,250.146297 L151.709986,250.146297 C152.422934,250.146297 153,249.633349 153,248.999618 C153,248.366651 152.422934,247.852938 151.709986,247.852938 L149.790444,247.852938 L149.790444,246.146679" id="Fill-57"></path>
                    <path d="M128.499604,169 C129.155681,169 129.686716,168.468234 129.686716,167.813023 L129.686716,166.686977 L130.812889,166.686977 C131.468966,166.686977 132,166.155211 132,165.5 C132,164.844789 131.468966,164.313023 130.812889,164.313023 L129.686716,164.313023 L129.686716,163.186977 C129.686716,162.531766 129.155681,162 128.499604,162 C127.844319,162 127.312493,162.531766 127.312493,163.186977 L127.312493,164.313023 L126.187111,164.313023 C125.531034,164.313023 125,164.844789 125,165.5 C125,166.155211 125.531034,166.686977 126.187111,166.686977 L127.312493,166.686977 L127.312493,167.813023 C127.312493,168.468234 127.844319,169 128.499604,169" id="Fill-58"></path>
                    <path d="M424.999091,85 C425.75159,85 426.362314,84.4910633 426.362314,83.8639806 L426.362314,83.6360194 L426.636777,83.6360194 C427.389276,83.6360194 428,83.1270827 428,82.5 C428,81.87216 427.389276,81.3639806 426.636777,81.3639806 L426.362314,81.3639806 L426.362314,81.1360194 C426.362314,80.5081793 425.75159,80 424.999091,80 C424.246592,80 423.635868,80.5081793 423.635868,81.1360194 L423.635868,81.3639806 L423.363223,81.3639806 C422.610724,81.3639806 422,81.87216 422,82.5 C422,83.1270827 422.610724,83.6360194 423.363223,83.6360194 L423.635868,83.6360194 L423.635868,83.8639806 C423.635868,84.4910633 424.246592,85 424.999091,85" id="Fill-59"></path>
                    <path d="M228.363223,242.636019 L228.635868,242.636019 L228.635868,242.863981 C228.635868,243.491063 229.245683,244 229.999091,244 C230.75159,244 231.362314,243.491063 231.362314,242.863981 L231.362314,242.636019 L231.636777,242.636019 C232.389276,242.636019 233,242.127083 233,241.5 C233,240.872917 232.389276,240.363981 231.636777,240.363981 L231.362314,240.363981 L231.362314,240.136019 C231.362314,239.508179 230.75159,239 229.999091,239 C229.245683,239 228.635868,239.508179 228.635868,240.136019 L228.635868,240.363981 L228.363223,240.363981 C227.609815,240.363981 227,240.872917 227,241.5 C227,242.127083 227.609815,242.636019 228.363223,242.636019" id="Fill-60"></path>
                    <path d="M320.636529,184.363981 L320.363017,184.363981 C319.610632,184.363981 319,184.872917 319,185.5 C319,186.127083 319.610632,186.636019 320.363017,186.636019 L320.636529,186.636019 L320.636529,186.863981 C320.636529,187.491063 321.24716,188 321.999546,188 C322.751931,188 323.362562,187.491063 323.362562,186.863981 L323.362562,186.636019 L323.636983,186.636019 C324.389368,186.636019 325,186.127083 325,185.5 C325,184.872917 324.389368,184.363981 323.636983,184.363981 L323.362562,184.363981 L323.362562,184.136019 C323.362562,183.508179 322.751931,183 321.999546,183 C321.24716,183 320.636529,183.508179 320.636529,184.136019 L320.636529,184.363981" id="Fill-61"></path>
                    <path d="M99.3634298,104.636019 L99.6370247,104.636019 L99.6370247,104.863981 C99.6370247,105.491063 100.246932,106 101.000454,106 C101.753068,106 102.363884,105.491063 102.363884,104.863981 L102.363884,104.636019 L102.63657,104.636019 C103.390092,104.636019 104,104.127083 104,103.5 C104,102.872917 103.390092,102.363981 102.63657,102.363981 L102.363884,102.363981 L102.363884,102.136019 C102.363884,101.508937 101.753068,101 101.000454,101 C100.246932,101 99.6370247,101.508937 99.6370247,102.136019 L99.6370247,102.363981 L99.3634298,102.363981 C98.6099076,102.363981 98,102.872917 98,103.5 C98,104.127083 98.6099076,104.636019 99.3634298,104.636019" id="Fill-62"></path>
                    <path d="M365.5,34 C366.328,34 367,33.454804 367,32.781231 L367,31.218769 C367,30.545196 366.328,30 365.5,30 C364.672,30 364,30.545196 364,31.218769 L364,32.781231 C364,33.454804 364.672,34 365.5,34" id="Fill-63"></path>
                    <path d="M359.5,284 C360.328,284 361,283.430991 361,282.72989 L361,280.27011 C361,279.569009 360.328,279 359.5,279 C358.672,279 358,279.569009 358,280.27011 L358,282.72989 C358,283.430991 358.672,284 359.5,284" id="Fill-64"></path>
                    <path d="M379.5,292 C380.328,292 381,291.449825 381,290.77193 L381,286.22807 C381,285.550175 380.328,285 379.5,285 C378.672,285 378,285.550175 378,286.22807 L378,290.77193 C378,291.449825 378.672,292 379.5,292" id="Fill-65"></path>
                    <path d="M350.5,288 C351.328,288 352,287.436419 352,286.740131 L352,284.259869 C352,283.564421 351.328,283 350.5,283 C349.672,283 349,283.564421 349,284.259869 L349,286.740131 C349,287.436419 349.672,288 350.5,288" id="Fill-66"></path>
                    <path d="M427.5,261 C428.155211,261 428.686977,260.468234 428.686977,259.813023 L428.686977,258.686977 L429.813023,258.686977 C430.468234,258.686977 431,258.155211 431,257.5 C431,256.844789 430.468234,256.313023 429.813023,256.313023 L428.686977,256.313023 L428.686977,255.186977 C428.686977,254.531766 428.155211,254 427.5,254 C426.844789,254 426.313023,254.531766 426.313023,255.186977 L426.313023,256.313023 L425.186977,256.313023 C424.531766,256.313023 424,256.844789 424,257.5 C424,258.155211 424.531766,258.686977 425.186977,258.686977 L426.313023,258.686977 L426.313023,259.813023 C426.313023,260.468234 426.844789,261 427.5,261" id="Fill-67"></path>
                    <path d="M465.50039,129 C466.327358,129 467,128.327532 467,127.5 C467,126.673247 466.327358,126 465.50039,126 C464.672642,126 464,126.673247 464,127.5 C464,128.327532 464.672642,129 465.50039,129" id="Fill-68"></path>
                    <path d="M478.487562,293.620936 L481.512438,293.620936 L481.512438,277.379064 L478.487562,277.379064 L478.487562,293.620936 Z M482.756219,275 L477.243781,275 C476.556385,275 476,275.53291 476,276.189532 L476,294.810468 C476,295.46709 476.556385,296 477.243781,296 L482.756219,296 C483.442786,296 484,295.46709 484,294.810468 L484,276.189532 C484,275.53291 483.442786,275 482.756219,275 L482.756219,275 Z" id="Fill-69"></path>
                    <path d="M469.487304,293.620936 L472.512696,293.620936 L472.512696,277.379064 L469.487304,277.379064 L469.487304,293.620936 Z M473.756348,275 L468.243652,275 C467.557156,275 467,275.53291 467,276.189532 L467,294.810468 C467,295.46709 467.557156,296 468.243652,296 L473.756348,296 C474.442844,296 475,295.46709 475,294.810468 L475,276.189532 C475,275.53291 474.442844,275 473.756348,275 L473.756348,275 Z" id="Fill-70"></path>
                    <path d="M488.487562,293.620936 L491.512438,293.620936 L491.512438,277.379064 L488.487562,277.379064 L488.487562,293.620936 Z M492.756219,275 L487.243781,275 C486.557214,275 486,275.53291 486,276.189532 L486,294.810468 C486,295.46709 486.557214,296 487.243781,296 L492.756219,296 C493.443615,296 494,295.46709 494,294.810468 L494,276.189532 C494,275.53291 493.443615,275 492.756219,275 L492.756219,275 Z" id="Fill-71"></path>
                    <path d="M487.5,242 C488.328,242 489,241.474384 489,240.82675 L489,235.17325 C489,234.524834 488.328,234 487.5,234 C486.672,234 486,234.524834 486,235.17325 L486,240.82675 C486,241.474384 486.672,242 487.5,242" id="Fill-72"></path>
                    <path d="M481.5,228 C482.328,228 483,227.443961 483,226.756992 L483,225.243008 C483,224.556868 482.328,224 481.5,224 C480.672,224 480,224.556868 480,225.243008 L480,226.756992 C480,227.443961 480.672,228 481.5,228" id="Fill-73"></path>
                    <path d="M475.5,237 C476.328,237 477,236.486631 477,235.854087 L477,235.145913 C477,234.513369 476.328,234 475.5,234 C474.672,234 474,234.513369 474,235.145913 L474,235.854087 C474,236.486631 474.672,237 475.5,237" id="Fill-74"></path>
                    <path d="M442.671695,116.667022 C440.898765,120.133217 440,123.873207 440,127.784928 C440,128.455648 440.551068,129 441.230062,129 C441.909056,129 442.460124,128.455648 442.460124,127.784928 C442.460124,124.25798 443.270325,120.886561 444.867766,117.763017 C445.173641,117.163581 444.930909,116.433728 444.324898,116.13077 C443.719708,115.828623 442.97757,116.067587 442.671695,116.667022" id="Fill-75"></path>
                    <path d="M456.377264,104.073278 C452.507255,105.485897 449.022233,107.879457 446.298326,110.996239 C445.859376,111.49879 445.910923,112.263086 446.412695,112.702013 C446.643043,112.901745 446.925743,113 447.207638,113 C447.5443,113 447.879352,112.859866 448.11856,112.586845 C450.574264,109.775298 453.716985,107.616101 457.206034,106.342811 C457.832645,106.114086 458.155616,105.420662 457.926073,104.793279 C457.697336,104.166701 457.005486,103.845359 456.377264,104.073278" id="Fill-76"></path>
                    <path d="M487.655658,123.019395 C487.763659,123.597453 488.259519,124 488.815293,124 C488.889396,124 488.964287,123.992754 489.039967,123.979068 C489.68088,123.853473 490.10106,123.220668 489.978869,122.565321 C489.806225,121.644293 489.58155,120.73051 489.311153,119.847321 C489.115647,119.211296 488.458179,118.855444 487.829091,119.055913 C487.206309,119.254771 486.859444,119.931856 487.054161,120.568686 C487.297756,121.36412 487.499568,122.187732 487.655658,123.019395" id="Fill-77"></path>
                    <path d="M479.294686,147 C479.556012,147 479.820787,146.92721 480.049339,146.776882 C486.9059,142.250433 491,134.927097 491,127.186798 C491,126.531686 490.420427,126 489.706309,126 C488.992192,126 488.412619,126.531686 488.412619,127.186798 C488.412619,134.165963 484.721288,140.768518 478.538308,144.849522 C477.957872,145.233253 477.826778,145.973815 478.243347,146.506292 C478.496048,146.82831 478.89278,147 479.294686,147" id="Fill-78"></path>
                    <path d="M262.27011,121 L288.72989,121 C289.430991,121 290,120.552 290,120 C290,119.448 289.430991,119 288.72989,119 L262.27011,119 C261.568163,119 261,119.448 261,120 C261,120.552 261.568163,121 262.27011,121" id="Fill-79"></path>
                    <path d="M269.268834,117 L282.731166,117 C283.431562,117 284,116.552 284,116 C284,115.448 283.431562,115 282.731166,115 L269.268834,115 C268.567592,115 268,115.448 268,116 C268,116.552 268.567592,117 269.268834,117" id="Fill-80"></path>
                    <path d="M270.238174,113 L280.761826,113 C281.445298,113 282,112.552 282,112 C282,111.448 281.445298,111 280.761826,111 L270.238174,111 C269.553876,111 269,111.448 269,112 C269,112.552 269.553876,113 270.238174,113" id="Fill-81"></path>
                    <path d="M271.261179,109 L279.738821,109 C280.434992,109 281,108.552 281,108 C281,107.448 280.434992,107 279.738821,107 L271.261179,107 C270.564167,107 270,107.448 270,108 C270,108.552 270.564167,109 271.261179,109" id="Fill-82"></path>
                    <path d="M272.200107,105 L278.799893,105 C279.463152,105 280,104.552 280,104 C280,103.448 279.463152,103 278.799893,103 L272.200107,103 C271.536848,103 271,103.448 271,104 C271,104.552 271.536848,105 272.200107,105" id="Fill-83"></path>
                    <path d="M272.317202,100 L278.682798,100 C279.410772,100 280,99.552 280,99 C280,98.448 279.410772,98 278.682798,98 L272.317202,98 C271.589228,98 271,98.448 271,99 C271,99.552 271.589228,100 272.317202,100" id="Fill-84"></path>
                    <path d="M272.317202,96 L278.682798,96 C279.410772,96 280,95.552 280,95 C280,94.448 279.410772,94 278.682798,94 L272.317202,94 C271.589228,94 271,94.448 271,95 C271,95.552 271.589228,96 272.317202,96" id="Fill-85"></path>
                    <path d="M272.317202,92 L278.682798,92 C279.410772,92 280,91.552 280,91 C280,90.448 279.410772,90 278.682798,90 L272.317202,90 C271.589228,90 271,90.448 271,91 C271,91.552 271.589228,92 272.317202,92" id="Fill-86"></path>
                    <path d="M273.200137,88 L277.799863,88 C278.463139,88 279,87.552 279,87 C279,86.4473333 278.463139,86 277.799863,86 L273.200137,86 C272.536861,86 272,86.4473333 272,87 C272,87.552 272.536861,88 273.200137,88" id="Fill-87"></path>
                    <path d="M275.5,85 C276.329,85 277,84.4506277 277,83.7737226 L277,58.2262774 C277,57.5485547 276.329,57 275.5,57 C274.671,57 274,57.5485547 274,58.2262774 L274,83.7737226 C274,84.4506277 274.671,85 275.5,85" id="Fill-88"></path>
                    <path d="M74.0004189,243.373639 C77.5769607,243.373639 80.4866186,246.121521 80.4866186,249.499209 C80.4866186,252.877688 77.5769607,255.626361 74.0004189,255.626361 C70.4230393,255.626361 67.5133814,252.877688 67.5133814,249.499209 C67.5133814,246.121521 70.4230393,243.373639 74.0004189,243.373639 Z M74.0004189,258 C78.9626716,258 83,254.186354 83,249.499209 C83,244.813646 78.9626716,241 74.0004189,241 C69.0373284,241 65,244.813646 65,249.499209 C65,254.186354 69.0373284,258 74.0004189,258 L74.0004189,258 Z" id="Fill-89"></path>
                    <path d="M99.4202178,261.622136 L95.5797822,261.622136 L95.5797822,246.14858 C95.5797822,245.172071 96.4405695,244.377864 97.5,244.377864 C98.5585706,244.377864 99.4202178,245.172071 99.4202178,246.14858 L99.4202178,261.622136 Z M97.5,242 C95.0182496,242 93,243.861075 93,246.14858 L93,262.811068 C93,263.467358 93.5770113,264 94.2898911,264 L100.710109,264 C101.422989,264 102,263.467358 102,262.811068 L102,246.14858 C102,243.861075 99.9808905,242 97.5,242 L97.5,242 Z" id="Fill-90"></path>
                    <path d="M98.3624717,225.572816 L96.6375283,225.572816 L96.6375283,209.221683 C96.6375283,208.783981 97.0243657,208.427184 97.5,208.427184 C97.9756343,208.427184 98.3624717,208.783981 98.3624717,209.221683 L98.3624717,225.572816 Z M97.5,206 C95.5702085,206 94,207.445793 94,209.221683 L94,226.786408 C94,227.456311 94.5908063,228 95.3187641,228 L99.6812359,228 C100.409194,228 101,227.456311 101,226.786408 L101,209.221683 C101,207.445793 99.4297915,206 97.5,206 L97.5,206 Z" id="Fill-91"></path>
                    <path d="M52.4202178,261.622136 L48.5797822,261.622136 L48.5797822,246.14858 C48.5797822,245.172071 49.4414294,244.377864 50.5,244.377864 C51.5594305,244.377864 52.4202178,245.172071 52.4202178,246.14858 L52.4202178,261.622136 Z M50.5,242 C48.0191095,242 46,243.861075 46,246.14858 L46,262.811068 C46,263.467358 46.5778712,264 47.2898911,264 L53.7101089,264 C54.4229887,264 55,263.467358 55,262.811068 L55,246.14858 C55,243.861075 52.9817504,242 50.5,242 L50.5,242 Z" id="Fill-92"></path>
                    <path d="M51.3624717,225.572816 L49.6375283,225.572816 L49.6375283,209.221683 C49.6375283,208.783981 50.0243657,208.427184 50.5,208.427184 C50.9756343,208.427184 51.3624717,208.783981 51.3624717,209.221683 L51.3624717,225.572816 Z M50.5,206 C48.5702085,206 47,207.445793 47,209.221683 L47,226.786408 C47,227.456311 47.5908063,228 48.3187641,228 L52.6812359,228 C53.4100728,228 54,227.456311 54,226.786408 L54,209.221683 C54,207.445793 52.4306707,206 50.5,206 L50.5,206 Z" id="Fill-93"></path>
                </g>
            </g>
        </g>
    </g>
</svg>